<svg xmlns="http://www.w3.org/2000/svg" width="740" height="489" viewBox="0 0 740 489" role="img" aria-labelledby="title">
<title id="title">jordan@j0rdiun running neofetch</title>
<style>
text { font: 14px ui-monospace, SFMono-Regular, 'SF Mono', Menlo, Consolas, 'DejaVu Sans Mono', 'Liberation Mono', monospace; white-space: pre; }
.fg { fill: #2b2b2b; } .c1 { fill: #8558b8; } .path { fill: #3d7a1f; } .b { font-weight: 700; }
.title { font: 600 13px -apple-system, BlinkMacSystemFont, 'Segoe UI', 'Noto Sans', Helvetica, Arial, sans-serif; fill: #6b6b6b; }
.type { animation: appear .01s steps(1) backwards; }
.row { animation: fade .3s ease-out backwards; }
.cursor { fill: #2b2b2b; animation: appear .01s steps(1) backwards, blink 1.1s steps(1) infinite; }
@keyframes appear { from { opacity: 0; } }
@keyframes fade { from { opacity: 0; transform: translateY(3px); } }
@keyframes blink { 50% { opacity: 0; } }
@media (prefers-reduced-motion: reduce) { * { animation: none !important; } }
</style>
<defs>
<filter id="shadow" x="-10%" y="-10%" width="120%" height="130%"><feDropShadow dx="0" dy="4" stdDeviation="6" flood-color="#000" flood-opacity="0.14"/></filter>
<clipPath id="window"><rect x="14" y="14" width="712" height="461" rx="12"/></clipPath>
</defs>
<rect x="14" y="14" width="712" height="461" rx="12" fill="#fbfbfb" filter="url(#shadow)"/>
<g clip-path="url(#window)"><rect x="14" y="14" width="712" height="38" fill="#ededed"/></g>
<rect x="14.5" y="14.5" width="711" height="460" rx="11.5" fill="none" stroke="#0000001f"/>
<text class="title" x="370.0" y="37.5" text-anchor="middle">jordan@j0rdiun: ~</text>
<circle cx="706" cy="33.0" r="7" fill="#6b6b6b" fill-opacity=".22"/><circle cx="680" cy="33.0" r="7" fill="#6b6b6b" fill-opacity=".22"/><circle cx="654" cy="33.0" r="7" fill="#6b6b6b" fill-opacity=".22"/>
<text x="38.0" y="88" class="c1 b" textLength="117.6" lengthAdjust="spacingAndGlyphs">jordan@j0rdiun</text><text x="155.6" y="88" class="fg" textLength="8.4" lengthAdjust="spacingAndGlyphs">:</text><text x="164.0" y="88" class="path" textLength="8.4" lengthAdjust="spacingAndGlyphs">~</text><text x="172.4" y="88" class="fg" textLength="8.4" lengthAdjust="spacingAndGlyphs">$</text>
<g class="type" style="animation-delay:0.500s"><text x="189.2" y="88" class="fg" textLength="8.4" lengthAdjust="spacingAndGlyphs">n</text></g>
<g class="type" style="animation-delay:0.575s"><text x="197.6" y="88" class="fg" textLength="8.4" lengthAdjust="spacingAndGlyphs">e</text></g>
<g class="type" style="animation-delay:0.650s"><text x="206.0" y="88" class="fg" textLength="8.4" lengthAdjust="spacingAndGlyphs">o</text></g>
<g class="type" style="animation-delay:0.725s"><text x="214.4" y="88" class="fg" textLength="8.4" lengthAdjust="spacingAndGlyphs">f</text></g>
<g class="type" style="animation-delay:0.800s"><text x="222.8" y="88" class="fg" textLength="8.4" lengthAdjust="spacingAndGlyphs">e</text></g>
<g class="type" style="animation-delay:0.875s"><text x="231.2" y="88" class="fg" textLength="8.4" lengthAdjust="spacingAndGlyphs">t</text></g>
<g class="type" style="animation-delay:0.950s"><text x="239.6" y="88" class="fg" textLength="8.4" lengthAdjust="spacingAndGlyphs">c</text></g>
<g class="type" style="animation-delay:1.025s"><text x="248.0" y="88" class="fg" textLength="8.4" lengthAdjust="spacingAndGlyphs">h</text></g>
<g class="row" style="animation-delay:1.450s"><g shape-rendering="crispEdges"><rect x="76.0" y="111.5" width="38" height="19" fill="#2a211d"/><rect x="266.0" y="111.5" width="38" height="19" fill="#2a211d"/></g><text x="382.4" y="126" class="c1 b" textLength="50.4" lengthAdjust="spacingAndGlyphs">jordan</text><text x="432.8" y="126" class="fg" textLength="8.4" lengthAdjust="spacingAndGlyphs">@</text><text x="441.2" y="126" class="c1 b" textLength="58.8" lengthAdjust="spacingAndGlyphs">j0rdiun</text></g>
<g class="row" style="animation-delay:1.485s"><g shape-rendering="crispEdges"><rect x="57.0" y="130.5" width="57" height="19" fill="#2a211d"/><rect x="114.0" y="130.5" width="152" height="19" fill="#e6c38f"/><rect x="266.0" y="130.5" width="57" height="19" fill="#2a211d"/></g><text x="382.4" y="145" class="fg" textLength="117.6" lengthAdjust="spacingAndGlyphs">--------------</text></g>
<g class="row" style="animation-delay:1.520s"><g shape-rendering="crispEdges"><rect x="38.0" y="149.5" width="57" height="19" fill="#2a211d"/><rect x="95.0" y="149.5" width="190" height="19" fill="#e6c38f"/><rect x="285.0" y="149.5" width="57" height="19" fill="#2a211d"/></g><text x="382.4" y="164" class="c1 b" textLength="25.2" lengthAdjust="spacingAndGlyphs">OS:</text><text x="416.0" y="164" class="fg" textLength="201.6" lengthAdjust="spacingAndGlyphs">Pop!_OS 24.04 LTS x86_64</text></g>
<g class="row" style="animation-delay:1.555s"><g shape-rendering="crispEdges"><rect x="38.0" y="168.5" width="38" height="19" fill="#2a211d"/><rect x="76.0" y="168.5" width="76" height="19" fill="#e6c38f"/><rect x="152.0" y="168.5" width="19" height="19" fill="#c79b63"/><rect x="171.0" y="168.5" width="38" height="19" fill="#e6c38f"/><rect x="209.0" y="168.5" width="19" height="19" fill="#c79b63"/><rect x="228.0" y="168.5" width="76" height="19" fill="#e6c38f"/><rect x="304.0" y="168.5" width="38" height="19" fill="#2a211d"/></g><text x="382.4" y="183" class="c1 b" textLength="42.0" lengthAdjust="spacingAndGlyphs">Host:</text><text x="432.8" y="183" class="fg" textLength="151.2" lengthAdjust="spacingAndGlyphs">github.com/j0rdiun</text></g>
<g class="row" style="animation-delay:1.590s"><g shape-rendering="crispEdges"><rect x="38.0" y="187.5" width="19" height="19" fill="#2a211d"/><rect x="57.0" y="187.5" width="114" height="19" fill="#e6c38f"/><rect x="171.0" y="187.5" width="38" height="19" fill="#c79b63"/><rect x="209.0" y="187.5" width="114" height="19" fill="#e6c38f"/><rect x="323.0" y="187.5" width="19" height="19" fill="#2a211d"/></g><text x="382.4" y="202" class="c1 b" textLength="58.8" lengthAdjust="spacingAndGlyphs">Uptime:</text><text x="449.6" y="202" class="fg" textLength="235.2" lengthAdjust="spacingAndGlyphs">11 years, 10 months, 17 days</text></g>
<g class="row" style="animation-delay:1.625s"><g shape-rendering="crispEdges"><rect x="57.0" y="206.5" width="266" height="19" fill="#e6c38f"/></g><text x="382.4" y="221" class="c1 b" textLength="75.6" lengthAdjust="spacingAndGlyphs">Packages:</text><text x="466.4" y="221" class="fg" textLength="168.0" lengthAdjust="spacingAndGlyphs">2 (repos), 0 (forks)</text></g>
<g class="row" style="animation-delay:1.660s"><g shape-rendering="crispEdges"><rect x="57.0" y="225.5" width="38" height="19" fill="#e6c38f"/><rect x="95.0" y="225.5" width="38" height="19" fill="#2a211d"/><rect x="133.0" y="225.5" width="114" height="19" fill="#e6c38f"/><rect x="247.0" y="225.5" width="38" height="19" fill="#2a211d"/><rect x="285.0" y="225.5" width="38" height="19" fill="#e6c38f"/></g><text x="382.4" y="240" class="c1 b" textLength="50.4" lengthAdjust="spacingAndGlyphs">Stars:</text><text x="441.2" y="240" class="fg" textLength="16.8" lengthAdjust="spacingAndGlyphs">12</text></g>
<g class="row" style="animation-delay:1.695s"><g shape-rendering="crispEdges"><rect x="38.0" y="244.5" width="38" height="19" fill="#e6c38f"/><rect x="76.0" y="244.5" width="19" height="19" fill="#2a211d"/><rect x="95.0" y="244.5" width="19" height="19" fill="#ffffff"/><rect x="114.0" y="244.5" width="38" height="19" fill="#2a211d"/><rect x="152.0" y="244.5" width="76" height="19" fill="#e6c38f"/><rect x="228.0" y="244.5" width="19" height="19" fill="#2a211d"/><rect x="247.0" y="244.5" width="19" height="19" fill="#ffffff"/><rect x="266.0" y="244.5" width="38" height="19" fill="#2a211d"/><rect x="304.0" y="244.5" width="38" height="19" fill="#e6c38f"/></g><text x="382.4" y="259" class="c1 b" textLength="50.4" lengthAdjust="spacingAndGlyphs">Shell:</text><text x="441.2" y="259" class="fg" textLength="25.2" lengthAdjust="spacingAndGlyphs">zsh</text></g>
<g class="row" style="animation-delay:1.730s"><g shape-rendering="crispEdges"><rect x="38.0" y="263.5" width="38" height="19" fill="#e6c38f"/><rect x="76.0" y="263.5" width="76" height="19" fill="#2a211d"/><rect x="152.0" y="263.5" width="19" height="19" fill="#e6c38f"/><rect x="171.0" y="263.5" width="38" height="19" fill="#c79b63"/><rect x="209.0" y="263.5" width="19" height="19" fill="#e6c38f"/><rect x="228.0" y="263.5" width="76" height="19" fill="#2a211d"/><rect x="304.0" y="263.5" width="38" height="19" fill="#e6c38f"/></g><text x="382.4" y="278" class="c1 b" textLength="25.2" lengthAdjust="spacingAndGlyphs">DE:</text><text x="416.0" y="278" class="fg" textLength="50.4" lengthAdjust="spacingAndGlyphs">COSMIC</text></g>
<g class="row" style="animation-delay:1.765s"><g shape-rendering="crispEdges"><rect x="38.0" y="282.5" width="57" height="19" fill="#e6c38f"/><rect x="95.0" y="282.5" width="38" height="19" fill="#2a211d"/><rect x="133.0" y="282.5" width="19" height="19" fill="#e6c38f"/><rect x="152.0" y="282.5" width="76" height="19" fill="#17110e"/><rect x="228.0" y="282.5" width="19" height="19" fill="#e6c38f"/><rect x="247.0" y="282.5" width="38" height="19" fill="#2a211d"/><rect x="285.0" y="282.5" width="57" height="19" fill="#e6c38f"/></g><text x="382.4" y="297" class="c1 b" textLength="75.6" lengthAdjust="spacingAndGlyphs">Terminal:</text><text x="466.4" y="297" class="fg" textLength="58.8" lengthAdjust="spacingAndGlyphs">Ghostty</text></g>
<g class="row" style="animation-delay:1.800s"><g shape-rendering="crispEdges"><rect x="57.0" y="301.5" width="76" height="19" fill="#e6c38f"/><rect x="133.0" y="301.5" width="19" height="19" fill="#3b2f29"/><rect x="152.0" y="301.5" width="76" height="19" fill="#17110e"/><rect x="228.0" y="301.5" width="19" height="19" fill="#3b2f29"/><rect x="247.0" y="301.5" width="76" height="19" fill="#e6c38f"/></g><text x="382.4" y="316" class="c1 b" textLength="75.6" lengthAdjust="spacingAndGlyphs">Location:</text><text x="466.4" y="316" class="fg" textLength="117.6" lengthAdjust="spacingAndGlyphs">United Kingdom</text></g>
<g class="row" style="animation-delay:1.835s"><g shape-rendering="crispEdges"><rect x="57.0" y="320.5" width="57" height="19" fill="#e6c38f"/><rect x="114.0" y="320.5" width="152" height="19" fill="#3b2f29"/><rect x="266.0" y="320.5" width="57" height="19" fill="#e6c38f"/></g><text x="382.4" y="335" class="c1 b" textLength="50.4" lengthAdjust="spacingAndGlyphs">Langs:</text><text x="441.2" y="335" class="fg" textLength="201.6" lengthAdjust="spacingAndGlyphs">Rust, TypeScript, Python</text></g>
<g class="row" style="animation-delay:1.870s"><g shape-rendering="crispEdges"><rect x="76.0" y="339.5" width="38" height="19" fill="#e6c38f"/><rect x="114.0" y="339.5" width="152" height="19" fill="#3b2f29"/><rect x="266.0" y="339.5" width="38" height="19" fill="#e6c38f"/></g><text x="382.4" y="354" class="c1 b" textLength="75.6" lengthAdjust="spacingAndGlyphs">Building:</text><text x="466.4" y="354" class="fg" textLength="193.2" lengthAdjust="spacingAndGlyphs">cosmic-ext-app-switcher</text></g>
<g class="row" style="animation-delay:1.905s"><g shape-rendering="crispEdges"><rect x="76.0" y="358.5" width="57" height="19" fill="#e6c38f"/><rect x="133.0" y="358.5" width="38" height="19" fill="#3b2f29"/><rect x="171.0" y="358.5" width="38" height="19" fill="#ef8a9a"/><rect x="209.0" y="358.5" width="38" height="19" fill="#3b2f29"/><rect x="247.0" y="358.5" width="57" height="19" fill="#e6c38f"/></g></g>
<g class="row" style="animation-delay:1.940s"><g shape-rendering="crispEdges"><rect x="95.0" y="377.5" width="57" height="19" fill="#e6c38f"/><rect x="152.0" y="377.5" width="19" height="19" fill="#3b2f29"/><rect x="171.0" y="377.5" width="38" height="19" fill="#ef8a9a"/><rect x="209.0" y="377.5" width="19" height="19" fill="#3b2f29"/><rect x="228.0" y="377.5" width="57" height="19" fill="#e6c38f"/></g><rect x="382.4" y="379" width="25.2" height="17" fill="#3a3a3a"/><rect x="407.6" y="379" width="25.2" height="17" fill="#e06c75"/><rect x="432.8" y="379" width="25.2" height="17" fill="#98c379"/><rect x="458.0" y="379" width="25.2" height="17" fill="#e5c07b"/><rect x="483.2" y="379" width="25.2" height="17" fill="#61afef"/><rect x="508.4" y="379" width="25.2" height="17" fill="#c678dd"/><rect x="533.6" y="379" width="25.2" height="17" fill="#56b6c2"/><rect x="558.8" y="379" width="25.2" height="17" fill="#dcdfe4"/></g>
<g class="row" style="animation-delay:1.975s"><g shape-rendering="crispEdges"><rect x="133.0" y="396.5" width="114" height="19" fill="#e6c38f"/></g><rect x="382.4" y="398" width="25.2" height="17" fill="#5c6370"/><rect x="407.6" y="398" width="25.2" height="17" fill="#f08c94"/><rect x="432.8" y="398" width="25.2" height="17" fill="#b5e08f"/><rect x="458.0" y="398" width="25.2" height="17" fill="#f2d49a"/><rect x="483.2" y="398" width="25.2" height="17" fill="#8cc7f5"/><rect x="508.4" y="398" width="25.2" height="17" fill="#d9a3eb"/><rect x="533.6" y="398" width="25.2" height="17" fill="#7fd3dd"/><rect x="558.8" y="398" width="25.2" height="17" fill="#ffffff"/></g>
<g class="row" style="animation-delay:2.260s"><text x="38.0" y="449" class="c1 b" textLength="117.6" lengthAdjust="spacingAndGlyphs">jordan@j0rdiun</text><text x="155.6" y="449" class="fg" textLength="8.4" lengthAdjust="spacingAndGlyphs">:</text><text x="164.0" y="449" class="path" textLength="8.4" lengthAdjust="spacingAndGlyphs">~</text><text x="172.4" y="449" class="fg" textLength="8.4" lengthAdjust="spacingAndGlyphs">$</text><rect class="cursor" x="189.2" y="436" width="8.4" height="17" style="animation-delay:2.260s, 2.260s"/></g>
</svg>
